<svg xmlns="http://www.w3.org/2000/svg" version="1.1" xmlns:xlink="http://www.w3.org/1999/xlink" xmlns:svgjs="http://svgjs.dev/svgjs" width="1000" height="138" viewBox="0 0 1000 138"><g transform="matrix(1,0,0,1,-0.6060606060606233,0.6196925134027822)"><svg viewBox="0 0 396 55" data-background-color="#ffffff" preserveAspectRatio="xMidYMid meet" height="138" width="1000" xmlns="http://www.w3.org/2000/svg" xmlns:xlink="http://www.w3.org/1999/xlink"><g id="tight-bounds" transform="matrix(1,0,0,1,0.2400000000000091,-0.24697890026922664)"><svg viewBox="0 0 395.52 55.49395780053845" height="55.49395780053845" width="395.52"><g><svg viewBox="0 0 467.71491081928104 65.6233604462171" height="55.49395780053845" width="395.52"><g transform="matrix(1,0,0,1,0,9.069509294665316)"><svg viewBox="0 0 395.52 47.48434185688647" height="47.48434185688647" width="395.52"><g><svg viewBox="0 0 395.52 47.48434185688647" height="47.48434185688647" width="395.52"><g><svg viewBox="0 0 395.52 27.83658810325477" height="27.83658810325477" width="395.52"><g transform="matrix(1,0,0,1,0,0)"><svg width="395.52" viewBox="3.319999933242798 -36.25 522.0299682617188 36.7400016784668" height="27.83658810325477" data-palette-color="#7a26c1"><path d="M32.32-6.59L32.32-3.39Q31.03-2.27 29.46-1.53 27.88-0.78 26.26-0.33 24.63 0.12 23.06 0.31 21.48 0.49 20.21 0.49L20.21 0.49Q16.63 0.49 13.54-0.76 10.45-2 8.18-4.28 5.91-6.57 4.61-9.8 3.32-13.04 3.32-16.99L3.32-16.99Q3.32-20.02 4.08-22.62 4.83-25.22 6.18-27.36 7.52-29.49 9.38-31.15 11.23-32.81 13.43-33.95 15.63-35.08 18.09-35.67 20.56-36.25 23.14-36.25L23.14-36.25Q23.97-36.25 25.02-36.18 26.07-36.11 27.27-35.95 28.47-35.79 29.75-35.53 31.03-35.28 32.35-34.89L32.35-34.89 31.37-30.15 30.88-29.91Q28.34-31.08 26.14-31.52 23.93-31.96 22.31-31.96L22.31-31.96Q19.53-31.96 17.19-30.9 14.84-29.83 13.16-27.98 11.47-26.12 10.53-23.6 9.59-21.07 9.59-18.16L9.59-18.16Q9.59-15.31 10.47-12.74 11.35-10.18 13.05-8.24 14.75-6.3 17.21-5.15 19.68-4 22.88-4L22.88-4Q24.9-4 27.32-4.57 29.74-5.13 32.32-6.59L32.32-6.59ZM56.05-3.81L56.05-3.81Q58.69-3.81 60.84-4.91 62.99-6.01 64.51-7.9 66.04-9.79 66.87-12.33 67.7-14.87 67.7-17.75L67.7-17.75Q67.7-20.8 66.78-23.4 65.87-26 64.26-27.91 62.64-29.81 60.45-30.88 58.25-31.96 55.69-31.96L55.69-31.96Q53.02-31.96 50.88-30.83 48.73-29.71 47.21-27.8 45.7-25.88 44.88-23.34 44.06-20.8 44.06-17.94L44.06-17.94Q44.06-14.89 44.97-12.3 45.87-9.72 47.47-7.84 49.07-5.96 51.27-4.88 53.46-3.81 56.05-3.81ZM55.22 0.49L55.22 0.49Q52.85 0.49 50.63-0.06 48.41-0.61 46.47-1.65 44.53-2.69 42.93-4.2 41.33-5.71 40.17-7.67 39.01-9.62 38.38-11.98 37.74-14.33 37.74-17.04L37.74-17.04Q37.74-19.85 38.43-22.36 39.11-24.88 40.34-27 41.57-29.13 43.31-30.85 45.04-32.57 47.13-33.76 49.22-34.96 51.61-35.61 54-36.25 56.59-36.25L56.59-36.25Q60.08-36.25 63.24-35.07 66.4-33.89 68.8-31.63 71.19-29.37 72.6-26.12 74.02-22.88 74.02-18.75L74.02-18.75Q74.02-15.97 73.35-13.45 72.68-10.94 71.46-8.8 70.24-6.67 68.53-4.94 66.82-3.22 64.73-2.01 62.64-0.81 60.24-0.16 57.83 0.49 55.22 0.49ZM94.33-13.92L88.42-13.92 88.42 0 82.37 0 82.37-35.77 93.38-35.77Q96.31-35.77 98.64-35.02 100.97-34.28 102.58-33 104.19-31.71 105.06-30 105.93-28.3 105.93-26.34L105.93-26.34Q105.93-24.61 105.29-23.1 104.66-21.58 103.63-20.3 102.61-19.02 101.33-17.98 100.04-16.94 98.77-16.19L98.77-16.19 109.13 0 101.97 0 94.33-13.92ZM88.42-31.47L88.42-18.09 95.77-18.09Q96.67-18.58 97.43-19.31 98.19-20.04 98.74-20.96 99.29-21.88 99.58-22.92 99.87-23.97 99.87-25.1L99.87-25.1Q99.87-26.44 99.41-27.61 98.95-28.78 98.03-29.64 97.11-30.49 95.73-30.98 94.36-31.47 92.52-31.47L92.52-31.47 88.42-31.47ZM137 0L115.72 0 115.72-35.77 137.47-35.77 136.66-31.47 121.77-31.47 121.77-20.68 134.95-20.68 134.17-16.5 121.77-16.5 121.77-4.3 137.81-4.3 137 0ZM168.57-13.92L162.66-13.92 162.66 0 156.6 0 156.6-35.77 167.61-35.77Q170.54-35.77 172.88-35.02 175.21-34.28 176.82-33 178.43-31.71 179.3-30 180.16-28.3 180.16-26.34L180.16-26.34Q180.16-24.61 179.53-23.1 178.89-21.58 177.87-20.3 176.84-19.02 175.56-17.98 174.28-16.94 173.01-16.19L173.01-16.19 183.36 0 176.21 0 168.57-13.92ZM162.66-31.47L162.66-18.09 170.01-18.09Q170.91-18.58 171.67-19.31 172.42-20.04 172.97-20.96 173.52-21.88 173.82-22.92 174.11-23.97 174.11-25.1L174.11-25.1Q174.11-26.44 173.64-27.61 173.18-28.78 172.27-29.64 171.35-30.49 169.97-30.98 168.59-31.47 166.76-31.47L166.76-31.47 162.66-31.47ZM211.24 0L189.95 0 189.95-35.77 211.7-35.77 210.9-31.47 196.01-31.47 196.01-20.68 209.19-20.68 208.41-16.5 196.01-16.5 196.01-4.3 212.05-4.3 211.24 0ZM229.57-3.81L229.57-3.81Q231.04-3.81 232.29-4.19 233.55-4.57 234.48-5.26 235.41-5.96 235.93-6.97 236.46-7.98 236.46-9.25L236.46-9.25Q236.46-10.77 235.74-11.82 235.02-12.87 233.82-13.66 232.62-14.45 231.11-15.09 229.6-15.72 228.02-16.38 226.45-17.04 224.93-17.83 223.42-18.63 222.22-19.74 221.03-20.85 220.31-22.39 219.59-23.93 219.59-26.1L219.59-26.1Q219.59-28.47 220.49-30.35 221.39-32.23 223.03-33.54 224.67-34.86 226.94-35.56 229.21-36.25 231.94-36.25L231.94-36.25Q232.75-36.25 233.8-36.18 234.85-36.11 236.04-35.95 237.24-35.79 238.54-35.53 239.85-35.28 241.17-34.89L241.17-34.89 240.22-30.15 239.75-29.91Q238.46-30.49 237.24-30.88 236.02-31.27 234.92-31.52 233.82-31.76 232.88-31.86 231.94-31.96 231.23-31.96L231.23-31.96Q229.89-31.96 228.79-31.64 227.69-31.32 226.92-30.71 226.15-30.1 225.73-29.21 225.3-28.32 225.3-27.17L225.3-27.17Q225.3-25.63 226.03-24.55 226.76-23.46 227.95-22.63 229.13-21.8 230.66-21.15 232.18-20.51 233.78-19.84 235.38-19.17 236.91-18.38 238.43-17.6 239.62-16.53 240.8-15.45 241.54-14 242.27-12.55 242.27-10.52L242.27-10.52Q242.27-8.25 241.32-6.25 240.36-4.25 238.62-2.75 236.87-1.25 234.43-0.38 231.99 0.49 228.99 0.49L228.99 0.49Q227.77 0.49 226.42 0.33 225.08 0.17 223.69-0.12 222.3-0.42 220.93-0.85 219.56-1.29 218.29-1.86L218.29-1.86 219.27-6.64 219.76-6.88Q222.35-5.47 224.81-4.64 227.28-3.81 229.57-3.81ZM264.07-31.47L264.07 0 257.99 0 257.99-31.47 246.39-31.47 247.2-35.77 276.03-35.77 275.22-31.47 264.07-31.47ZM302.42-3.81L302.42-3.81Q303.88-3.81 305.14-4.19 306.4-4.57 307.32-5.26 308.25-5.96 308.78-6.97 309.3-7.98 309.3-9.25L309.3-9.25Q309.3-10.77 308.58-11.82 307.86-12.87 306.66-13.66 305.47-14.45 303.95-15.09 302.44-15.72 300.87-16.38 299.29-17.04 297.78-17.83 296.26-18.63 295.07-19.74 293.87-20.85 293.15-22.39 292.43-23.93 292.43-26.1L292.43-26.1Q292.43-28.47 293.33-30.35 294.24-32.23 295.87-33.54 297.51-34.86 299.78-35.56 302.05-36.25 304.78-36.25L304.78-36.25Q305.59-36.25 306.64-36.18 307.69-36.11 308.89-35.95 310.08-35.79 311.39-35.53 312.69-35.28 314.01-34.89L314.01-34.89 313.06-30.15 312.6-29.91Q311.3-30.49 310.08-30.88 308.86-31.27 307.76-31.52 306.66-31.76 305.72-31.86 304.78-31.96 304.08-31.96L304.08-31.96Q302.73-31.96 301.64-31.64 300.54-31.32 299.77-30.71 299-30.1 298.57-29.21 298.14-28.32 298.14-27.17L298.14-27.17Q298.14-25.63 298.88-24.55 299.61-23.46 300.79-22.63 301.98-21.8 303.5-21.15 305.03-20.51 306.63-19.84 308.23-19.17 309.75-18.38 311.28-17.6 312.46-16.53 313.65-15.45 314.38-14 315.11-12.55 315.11-10.52L315.11-10.52Q315.11-8.25 314.16-6.25 313.21-4.25 311.46-2.75 309.72-1.25 307.27-0.38 304.83 0.49 301.83 0.49L301.83 0.49Q300.61 0.49 299.27 0.33 297.92 0.17 296.53-0.12 295.14-0.42 293.77-0.85 292.41-1.29 291.14-1.86L291.14-1.86 292.11-6.64 292.6-6.88Q295.19-5.47 297.66-4.64 300.12-3.81 302.42-3.81ZM344.55 0L323.26 0 323.26-35.77 345.02-35.77 344.21-31.47 329.32-31.47 329.32-20.68 342.5-20.68 341.72-16.5 329.32-16.5 329.32-4.3 345.36-4.3 344.55 0ZM365.47-13.92L359.56-13.92 359.56 0 353.51 0 353.51-35.77 364.52-35.77Q367.45-35.77 369.78-35.02 372.11-34.28 373.72-33 375.34-31.71 376.2-30 377.07-28.3 377.07-26.34L377.07-26.34Q377.07-24.61 376.43-23.1 375.8-21.58 374.77-20.3 373.75-19.02 372.47-17.98 371.19-16.94 369.92-16.19L369.92-16.19 380.27 0 373.11 0 365.47-13.92ZM359.56-31.47L359.56-18.09 366.91-18.09Q367.82-18.58 368.57-19.31 369.33-20.04 369.88-20.96 370.43-21.88 370.72-22.92 371.01-23.97 371.01-25.1L371.01-25.1Q371.01-26.44 370.55-27.61 370.09-28.78 369.17-29.64 368.26-30.49 366.88-30.98 365.5-31.47 363.67-31.47L363.67-31.47 359.56-31.47ZM400.92-9.5L409.44-35.77 415.13-35.77 402.29 0 395.48 0 382.66-35.77 389.23-35.77 397.75-9.5 399.11-4.44 399.58-4.44 400.92-9.5ZM427.8-35.77L427.8 0 421.74 0 421.74-35.77 427.8-35.77ZM465.15-6.59L465.15-3.39Q463.85-2.27 462.28-1.53 460.7-0.78 459.08-0.33 457.46 0.12 455.88 0.31 454.31 0.49 453.04 0.49L453.04 0.49Q449.45 0.49 446.36-0.76 443.27-2 441-4.28 438.73-6.57 437.44-9.8 436.14-13.04 436.14-16.99L436.14-16.99Q436.14-20.02 436.9-22.62 437.66-25.22 439-27.36 440.34-29.49 442.2-31.15 444.05-32.81 446.25-33.95 448.45-35.08 450.91-35.67 453.38-36.25 455.97-36.25L455.97-36.25Q456.8-36.25 457.85-36.18 458.9-36.11 460.09-35.95 461.29-35.79 462.57-35.53 463.85-35.28 465.17-34.89L465.17-34.89 464.2-30.15 463.71-29.91Q461.17-31.08 458.96-31.52 456.75-31.96 455.14-31.96L455.14-31.96Q452.36-31.96 450.01-30.9 447.67-29.83 445.98-27.98 444.3-26.12 443.36-23.6 442.42-21.07 442.42-18.16L442.42-18.16Q442.42-15.31 443.3-12.74 444.18-10.18 445.87-8.24 447.57-6.3 450.04-5.15 452.5-4 455.7-4L455.7-4Q457.73-4 460.14-4.57 462.56-5.13 465.15-6.59L465.15-6.59ZM494.32 0L473.03 0 473.03-35.77 494.78-35.77 493.98-31.47 479.09-31.47 479.09-20.68 492.27-20.68 491.49-16.5 479.09-16.5 479.09-4.3 495.13-4.3 494.32 0ZM512.65-3.81L512.65-3.81Q514.12-3.81 515.37-4.19 516.63-4.57 517.56-5.26 518.49-5.96 519.01-6.97 519.54-7.98 519.54-9.25L519.54-9.25Q519.54-10.77 518.82-11.82 518.1-12.87 516.9-13.66 515.7-14.45 514.19-15.09 512.68-15.72 511.1-16.38 509.53-17.04 508.01-17.83 506.5-18.63 505.3-19.74 504.11-20.85 503.39-22.39 502.67-23.93 502.67-26.1L502.67-26.1Q502.67-28.47 503.57-30.35 504.47-32.23 506.11-33.54 507.75-34.86 510.02-35.56 512.29-36.25 515.02-36.25L515.02-36.25Q515.83-36.25 516.88-36.18 517.93-36.11 519.12-35.95 520.32-35.79 521.62-35.53 522.93-35.28 524.25-34.89L524.25-34.89 523.3-30.15 522.83-29.91Q521.54-30.49 520.32-30.88 519.1-31.27 518-31.52 516.9-31.76 515.96-31.86 515.02-31.96 514.31-31.96L514.31-31.96Q512.97-31.96 511.87-31.64 510.77-31.32 510-30.71 509.23-30.1 508.81-29.21 508.38-28.32 508.38-27.17L508.38-27.17Q508.38-25.63 509.11-24.55 509.85-23.46 511.03-22.63 512.21-21.8 513.74-21.15 515.27-20.51 516.86-19.84 518.46-19.17 519.99-18.38 521.52-17.6 522.7-16.53 523.88-15.45 524.62-14 525.35-12.55 525.35-10.52L525.35-10.52Q525.35-8.25 524.4-6.25 523.44-4.25 521.7-2.75 519.95-1.25 517.51-0.38 515.07 0.49 512.07 0.49L512.07 0.49Q510.85 0.49 509.5 0.33 508.16 0.17 506.77-0.12 505.38-0.42 504.01-0.85 502.64-1.29 501.37-1.86L501.37-1.86 502.35-6.64 502.84-6.88Q505.43-5.47 507.89-4.64 510.36-3.81 512.65-3.81Z" opacity="1" transform="matrix(1,0,0,1,0,0)" fill="#7a26c1" class="undefined-text-0" data-fill-palette-color="primary" id="text-0"></path></svg></g></svg></g><g transform="matrix(1,0,0,1,163.31020799999996,34.40813847631874)"><svg viewBox="0 0 232.20979200000002 13.076203380567735" height="13.076203380567735" width="232.20979200000002"><g transform="matrix(1,0,0,1,0,0)"><svg width="232.20979200000002" viewBox="1.5 -39 866.510009765625 48.79999923706055" height="13.076203380567735" data-palette-color="#7a26c1"><path d="M21.05-19.15L25.5-23.9 23.7-30.35 16.35-31.65 11.2-30.85 12.05-19.75 21.05-19.15ZM32.5-9.45L35.65-6.15 29.45-0.6 25.55-1.25 22.9-13 18.2-16.45 11.7-15.5 11.85-3.1 15-2.05 15.4-0.15 4.65-0.3 4.55-1.65 7.5-2.8 6.9-29.25 5.1-31.2 1.5-31.6 1.65-34.3 5.75-34.4 7.85-33.55 9.1-34.65 22.7-34.45 29-28.65 28.1-20.3 23.75-17 27.45-13.45 27.8-4.45 28.9-4.05 32.5-9.45ZM64.4-7.3L64.45 0.6 38.45 0.25 38.2-1.45 43.2-2.35 41.5-32.15 37.05-33.7 36.65-35.45 63.55-34.8 63.6-28.35 61.05-28.45 60.3-31.6 46.75-31.65 45.8-30.4 46.05-19.65 61.45-18.6 61-16.4 46.2-16.1 46.05-11.95 48.6-3.45 61.25-2.95 61.85-7 64.4-7.3ZM75.1-34.3L87.4-35.2 90.55-33.05 91.95-35 94.6-32.9 89.9-27.25 88-29 85.6-32.1 78.1-30.9 74.15-26.9 77.2-21.25 90.15-17.85 93.2-14.1 92.3-4.35 81.95 0.45 72.8-2.05 71.25 0.45 68.2-0.25 71.25-6.95 73.8-6.2 81.7-3.65 89.5-6.75 88-14.5 72.65-17.65 69.8-28.1 75.1-34.3ZM104.34-34.95L123.64-34.95 122.89-29.45 120.14-30.2 120.14-32.15 111.84-32.15 112.99-2.25 115.44-1.5 115.44 0.45 105.19 0.1 105.19-1.15 108.69-2.25 108.29-32.15 105.54-32.15 100.49-31.4 100.49-29.45 97.29-29.05 96.89-34.95 104.34-34.95ZM137.29-0.75L137.49 0.65 127.49 0.75 127.24-0.7 129.89-1.75 130.09-22.9 126.44-24.15 126.09-25.4 136.49-26 136.99-25 133.94-23.3 133.74-1.8 137.29-0.75ZM134.44-30.8L130.64-29.2 128.94-32.6 130.99-34.55 134.19-34.15 134.44-30.8ZM149.99-32.9L147.54-29.65 147.49-24.35 154.34-25.3 154.64-22.65 147.54-21.9 148.34-2.6 151.24-2.55 152.04-0.15 142.19-0.3 141.94-1.95 144.34-2.3 143.89-19.1 143.94-21.05 140.49-21.5 140.64-23.3 143.64-24.25 143.69-30.7 148.64-36.05 156.69-34.75 155.84-32 149.99-32.9ZM182.13-24.2L179.38-23.2 168.78 7.35 163.03 9.8 156.78 6.55 158.13 3.25 163.38 6.55 166.13 5.8 167.59 1.7 168.88-2.7 166.28-1.3 159.53-22.2 157.28-22.4 156.69-24.5 163.24-25.1 165.49-14.75 169.28-3.8 175.49-23.4 173.19-24.1 173.24-25.4 181.84-25.45 182.13-24.2ZM204.88-13.2L204.93-13.4 216.63-15.25 215.23-21.8 211.88-23.05 205.33-20.85 204.88-13.2ZM208.03-25.7L215.08-25.15 219.08-21.65 220.53-13.05 204.88-10.55 207.58-2.6 213.48-2.75 220.48-4.85 220.88-0.9 206.78 1.1 200.63-8 201.33-20.85 208.03-25.7ZM249.48-24.2L248.83-22.55 246.13-22.1 237.93 0.65 233.18 0.5 225.63-23.4 223.38-24.05 223.53-25.4 232.33-25.5 232.48-24.15 229.93-23.2 235.18-3.6 236.63-3.9 242.48-23.4 240.63-24.7 240.98-25.9 249.48-24.2ZM256.23-13.2L256.27-13.4 267.98-15.25 266.57-21.8 263.23-23.05 256.68-20.85 256.23-13.2ZM259.38-25.7L266.43-25.15 270.43-21.65 271.88-13.05 256.23-10.55 258.93-2.6 264.82-2.75 271.82-4.85 272.23-0.9 258.13 1.1 251.97-8 252.67-20.85 259.38-25.7ZM290.92-24.8L294.47-20.6 291.42-18 288.77-21.85 284.72-20.5 283.52-17.85 283.72-2.85 286.67-1.9 286.37-0.15 277.52-0.15 277.37-1.5 279.72-2.45 279.67-22.45 277.22-23.85 279.37-26.6 283.02-24.25 283.32-22.55 285.87-23.55 290.92-24.8ZM320.92-24.2L318.17-23.2 307.57 7.35 301.82 9.8 295.57 6.55 296.92 3.25 302.17 6.55 304.92 5.8 306.37 1.7 307.67-2.7 305.07-1.3 298.32-22.2 296.07-22.4 295.47-24.5 302.02-25.1 304.27-14.75 308.07-3.8 314.27-23.4 311.97-24.1 312.02-25.4 320.62-25.45 320.92-24.2ZM360.27-2.8L360.62-2.8 365.06-23.2 362.52-24.25 362.67-25.7 370.67-24.8 370.47-23.35 368.27-23 362.92 1 358.22 1 354.02-16.65 353.87-17.75 353.77-17.75 353.67-16.7 349.77 0.7 345.17 0.7 339.02-23.1 336.92-23.85 336.92-25.3 344.92-25.3 344.92-23.85 342.72-23.1 347.02-3.15 347.52-3.05 352.56-23.85 355.17-23.7 360.27-2.8ZM385.76-13.1L381.51-12.95 375.91-9.2 375.76-3.6 377.76-2.55Q378.76-2.6 379.61-2.65L379.61-2.65Q380.31-2.7 380.89-2.78 381.46-2.85 381.46-2.95L381.46-2.95Q381.46-2.95 381.66-3.25 381.86-3.55 382.19-4.03 382.51-4.5 382.91-5.08 383.31-5.65 383.76-6.25L383.76-6.25Q384.76-7.65 386.11-9.45L386.11-9.45 385.76-13.1ZM373.06-22.8L378.31-26.45 389.61-23.8 389.81-3.25 394.06-2.95 394.11-0.65 387.91-0.05 385.81-4.45 383.21-0.35 374.76 1.25 371.66-2.5 371.86-10.1 380.41-15.65 385.71-16.35 386.11-21.8 377.76-22.9 375.31-18.65 372.56-21.55 373.06-22.8ZM420.56-24.2L417.81-23.2 407.21 7.35 401.46 9.8 395.21 6.55 396.56 3.25 401.81 6.55 404.56 5.8 406.01 1.7 407.31-2.7 404.71-1.3 397.96-22.2 395.71-22.4 395.11-24.5 401.66-25.1 403.91-14.75 407.71-3.8 413.91-23.4 411.61-24.1 411.66-25.4 420.26-25.45 420.56-24.2ZM454.25-4.3L454.25-1.55 446.06 0 442.16-3.85 442.16-9 442.16-21.9 439.75-21.5 437.81-21.05 437.45-23.45 441-24.6 441.7-24.6 441.7-29.3 441-30.9 445.25-30.9 445.66-26.55 445.66-24.95 452.66-25.8 452.66-21.9 445.66-22.25 445.66-5.8 448-3.15 454.25-4.3ZM469.75-22.55L464.65-22.95 460.25-17.25 461.2-7.4 466.75-2.15 470.5-2.2 475.2-11.4 473.1-20.05 469.75-22.55ZM463.05-26.3L471.45-26.3 476.75-21.4 478.75-9.95 471.7 1.1 464.7 1.4 457.35-7.45 456.8-18.85 463.05-26.3ZM512.85-13.1L508.6-12.95 503-9.2 502.85-3.6 504.85-2.55Q505.85-2.6 506.7-2.65L506.7-2.65Q507.4-2.7 507.97-2.78 508.55-2.85 508.55-2.95L508.55-2.95Q508.55-2.95 508.75-3.25 508.95-3.55 509.27-4.03 509.6-4.5 510-5.08 510.4-5.65 510.85-6.25L510.85-6.25Q511.85-7.65 513.2-9.45L513.2-9.45 512.85-13.1ZM500.15-22.8L505.4-26.45 516.7-23.8 516.9-3.25 521.15-2.95 521.2-0.65 515-0.05 512.9-4.45 510.3-0.35 501.85 1.25 498.75-2.5 498.95-10.1 507.5-15.65 512.8-16.35 513.2-21.8 504.85-22.9 502.4-18.65 499.65-21.55 500.15-22.8ZM541.49-4.1L542.69-0.2 534.94 0.2 525.19-3 524.79-15.35 529.04-23.9 536.09-26.3 541.49-23.2 538.79-16.15 537.24-16.95 538.79-21.6 536.84-23.2 536.84-23.2 530.99-20.45 528.29-14.25 529.04-5.3 534.94-3 541.49-4.1ZM562.99-4.1L564.19-0.2 556.44 0.2 546.69-3 546.29-15.35 550.54-23.9 557.59-26.3 562.99-23.2 560.29-16.15 558.74-16.95 560.29-21.6 558.34-23.2 558.34-23.2 552.49-20.45 549.79-14.25 550.54-5.3 556.44-3 562.99-4.1ZM571.94-13.2L571.99-13.4 583.69-15.25 582.29-21.8 578.94-23.05 572.39-20.85 571.94-13.2ZM575.09-25.7L582.14-25.15 586.14-21.65 587.59-13.05 571.94-10.55 574.64-2.6 580.54-2.75 587.54-4.85 587.94-0.9 573.84 1.1 567.69-8 568.39-20.85 575.09-25.7ZM594.59-24.7L602.84-26.1 608.44-23.8 610.44-25.75 612.59-24.25 608.79-19.15 606.99-20.85 598.79-22.8 596.14-19.7 599.59-14.85 609.64-12.35 611.04-3.85 604.44 0.25 595.64-1.75 594.44 0.3 591.94-0.15 593.64-5.4 603.84-3 606.99-5.35 605.79-9.55 595.09-13.2 592.19-19.15 594.59-24.7ZM618.23-24.7L626.48-26.1 632.08-23.8 634.08-25.75 636.23-24.25 632.43-19.15 630.63-20.85 622.43-22.8 619.78-19.7 623.23-14.85 633.28-12.35 634.68-3.85 628.08 0.25 619.28-1.75 618.08 0.3 615.58-0.15 617.28-5.4 627.48-3 630.63-5.35 629.43-9.55 618.73-13.2 615.83-19.15 618.23-24.7ZM679.18-24.2L676.43-23.2 665.83 7.35 660.08 9.8 653.83 6.55 655.18 3.25 660.43 6.55 663.18 5.8 664.63 1.7 665.93-2.7 663.33-1.3 656.58-22.2 654.33-22.4 653.73-24.5 660.28-25.1 662.53-14.75 666.33-3.8 672.53-23.4 670.23-24.1 670.28-25.4 678.88-25.45 679.18-24.2ZM693.63-22.55L688.53-22.95 684.13-17.25 685.08-7.4 690.63-2.15 694.38-2.2 699.08-11.4 696.98-20.05 693.63-22.55ZM686.93-26.3L695.33-26.3 700.63-21.4 702.63-9.95 695.58 1.1 688.58 1.4 681.23-7.45 680.68-18.85 686.93-26.3ZM732.92-6.5L735.12-2.7 727.77 0.8 724.97 0.05 724.07-2.85 723.42-6.3 714.57 0.75 709.37-1.05 707.87-6.95 707.72-22.35 705.62-23.25 705.77-24.45 714.72-24.65 714.47-22.85 711.87-21.8 711.87-7.7 713.72-3.25 716.97-5.05 723.02-8.4 723.82-22.3 721.62-23.3 721.77-24.65 729.67-24.65 729.92-22.95 727.32-21.95 727.17-3.4 727.92-2.15 732.92-6.5ZM750.32-24.8L753.87-20.6 750.82-18 748.17-21.85 744.12-20.5 742.92-17.85 743.12-2.85 746.07-1.9 745.77-0.15 736.92-0.15 736.77-1.5 739.12-2.45 739.07-22.45 736.62-23.85 738.77-26.6 742.42-24.25 742.72-22.55 745.27-23.55 750.32-24.8ZM788.52-9.1L788.77-19.95 782.92-22.15 777.57-20.4 776.27-10.6 780.72-3.25 783.57-3.9 788.52-9.1ZM798.37-0.9L790.37-0.25 788.32-4.8 785.02-0.35 777.42-0.8 772.37-10.9 775.37-22.6 782.62-25.5 789.32-22.75 789.57-35.25 792.72-39 795.52-36.7 793.42-34.95 792.57-3.1 797.37-4 798.37-0.9ZM814.96-13.1L810.71-12.95 805.11-9.2 804.96-3.6 806.96-2.55Q807.96-2.6 808.81-2.65L808.81-2.65Q809.51-2.7 810.09-2.78 810.66-2.85 810.66-2.95L810.66-2.95Q810.66-2.95 810.86-3.25 811.06-3.55 811.39-4.03 811.71-4.5 812.11-5.08 812.51-5.65 812.96-6.25L812.96-6.25Q813.96-7.65 815.31-9.45L815.31-9.45 814.96-13.1ZM802.26-22.8L807.51-26.45 818.81-23.8 819.01-3.25 823.26-2.95 823.31-0.65 817.11-0.05 815.01-4.45 812.41-0.35 803.96 1.25 800.86-2.5 801.06-10.1 809.61-15.65 814.91-16.35 815.31-21.8 806.96-22.9 804.51-18.65 801.76-21.55 802.26-22.8ZM842.01-4.3L842.01-1.55 833.81 0 829.91-3.85 829.91-9 829.91-21.9 827.51-21.5 825.56-21.05 825.21-23.45 828.76-24.6 829.46-24.6 829.46-29.3 828.76-30.9 833.01-30.9 833.41-26.55 833.41-24.95 840.41-25.8 840.41-21.9 833.41-22.25 833.41-5.8 835.76-3.15 842.01-4.3ZM859.66-13.1L855.41-12.95 849.81-9.2 849.66-3.6 851.66-2.55Q852.66-2.6 853.51-2.65L853.51-2.65Q854.21-2.7 854.78-2.78 855.36-2.85 855.36-2.95L855.36-2.95Q855.36-2.95 855.56-3.25 855.76-3.55 856.08-4.03 856.41-4.5 856.81-5.08 857.21-5.65 857.66-6.25L857.66-6.25Q858.66-7.65 860.01-9.45L860.01-9.45 859.66-13.1ZM846.96-22.8L852.21-26.45 863.51-23.8 863.71-3.25 867.96-2.95 868.01-0.65 861.81-0.05 859.71-4.45 857.11-0.35 848.66 1.25 845.56-2.5 845.76-10.1 854.31-15.65 859.61-16.35 860.01-21.8 851.66-22.9 849.21-18.65 846.46-21.55 846.96-22.8Z" opacity="1" transform="matrix(1,0,0,1,0,0)" fill="#7a26c1" class="undefined-text-1" data-fill-palette-color="secondary" id="text-1"></path></svg></g></svg></g></svg></g></svg></g><g transform="matrix(1,0,0,1,402.09155037306397,0)"><svg viewBox="0 0 65.6233604462171 65.6233604462171" height="65.6233604462171" width="65.6233604462171"><g data-palette-color="#6936f5"><rect width="17.93705185529934" height="65.6233604462171" fill="#6936f5" stroke="transparent" data-fill-palette-color="accent" x="0" fill-opacity="1"></rect><rect width="17.93705185529934" height="65.6233604462171" fill="#6936f5" stroke="transparent" data-fill-palette-color="accent" x="21.87445348207237" fill-opacity="0.75"></rect><rect width="17.93705185529934" height="65.6233604462171" fill="#6936f5" stroke="transparent" data-fill-palette-color="accent" x="43.74890696414474" fill-opacity="0.5"></rect></g></svg></g></svg></g><defs></defs></svg><rect width="395.52" height="55.49395780053845" fill="none" stroke="none" visibility="hidden"></rect></g></svg></g></svg>